PathFileType        4      (X/Y/Z)      Static.trc         
DataRate	CameraRate	NumFrames	NumMarkers	Units	OrigDataRate	OrigDataStartFrame	OrigNumFrames
100.0	100.0	4	37	mm	100.0	34	267
Frame#	Time	T2			T10			MANU			LASI			RASI			SACR			LTHI			LKAX			LKD1			LKD2			LKNE			LTIB			LANK			LMED			LHEE			LTOE			LD1M			LD5M			RTHI			RKAX			RKD1			RKD2			RKNE			RTIB			RANK			RMED			RHEE			RTOE			RD1M			RD5M			RHJC			LHJC			RKJC			LKJC			MASI			RAJC			LAJC			
		X1	Y1	Z1	X2	Y2	Z2	X3	Y3	Z3	X4	Y4	Z4	X5	Y5	Z5	X6	Y6	Z6	X7	Y7	Z7	X8	Y8	Z8	X9	Y9	Z9	X10	Y10	Z10	X11	Y11	Z11	X12	Y12	Z12	X13	Y13	Z13	X14	Y14	Z14	X15	Y15	Z15	X16	Y16	Z16	X17	Y17	Z17	X18	Y18	Z18	X19	Y19	Z19	X20	Y20	Z20	X21	Y21	Z21	X22	Y22	Z22	X23	Y23	Z23	X24	Y24	Z24	X25	Y25	Z25	X26	Y26	Z26	X27	Y27	Z27	X28	Y28	Z28	X29	Y29	Z29	X30	Y30	Z30	X31	Y31	Z31	X32	Y32	Z32	X33	Y33	Z33	X34	Y34	Z34	X35	Y35	Z35	X36	Y36	Z36	X37	Y37	Z37	
34	0.33	265.17432	1100.1922	-9.95787	280.57225	915.4024	-5.11847	377.72474	1083.11817	1.3064	435.85948	723.74868	-76.09433	433.63124	737.95011	96.15976	296.53463	767.41068	1.1369	394.90263	430.8608	-156.32007	390.93826	380.08561	-217.05623	481.03948	390.43903	-121.13154	412.0746	278.95099	-136.55825	390.29701	368.53539	-124.83765	320.64543	159.19155	-183.35173	295.16231	68.62224	-145.13716	315.80955	71.4258	-70.78079	245.47508	20.33585	-109.7111	421.80737	30.7767	-134.59054	416.81594	16.04477	-84.65519	381.4653	17.71152	-175.73562	404.03038	446.90374	167.60558	408.60301	355.4249	227.28389	483.21643	412.75027	122.76452	455.25455	283.77686	121.2338	401.9803	361.18009	129.28547	308.21808	148.36725	155.96811	293.54073	62.09085	111.79	321.74486	69.21682	39.11664	250.84629	19.38692	68.24507	423.6945	28.70535	108.04784	414.0259	13.97431	52.68305	384.04261	15.54146	147.39601	374.87015	687.12858	77.42784	376.529	676.55611	-50.80928	398.78305	363.95854	81.97472	389.97274	362.6945	-78.20312	434.74536	730.8494	10.03272	305.18201	57.59961	75.27724	303.20479	62.12191	-108.76239	
35	0.34	265.22755	1100.20233	-9.94427	280.60242	915.40958	-5.06054	377.78413	1083.10715	1.33313	435.8605	723.7433	-76.03333	433.66218	737.93206	96.21327	296.52983	767.4131	1.20997	394.92705	430.87794	-156.32588	390.91541	380.09743	-217.03319	481.06728	390.46787	-121.13949	412.06371	278.9508	-136.552	390.30322	368.55362	-124.81135	320.66848	159.17516	-183.33635	295.18228	68.61848	-145.15332	315.82055	71.42171	-70.79086	245.42778	20.32976	-109.65186	421.80899	30.77842	-134.60384	416.81877	16.05487	-84.66791	381.45771	17.69882	-175.73885	404.07212	446.89415	167.64029	408.61476	355.41155	227.31387	483.23267	412.73214	122.79564	455.26067	283.76725	121.25801	401.9931	361.17195	129.31517	308.22307	148.36006	155.97918	293.54276	62.08646	111.79558	321.7441	69.21887	39.12105	250.84459	19.3886	68.24947	423.69605	28.70351	108.04463	414.03166	13.97523	52.67745	384.03796	15.53825	147.39237	374.89023	687.11954	77.48878	376.52682	676.55645	-50.74352	398.79637	363.95289	82.00452	389.99365	362.71611	-78.17631	434.76134	730.83768	10.08997	305.1823	57.59856	75.28157	303.22013	62.1173	-108.77658	
36	0.35	265.2883	1100.21073	-9.93286	280.63857	915.41407	-5.00812	377.85116	1083.09302	1.3574	435.86281	723.73209	-75.97867	433.68995	737.90918	96.26185	296.52916	767.41125	1.27756	394.96963	430.89788	-156.34946	390.90016	380.10547	-217.01554	481.12112	390.50074	-121.16228	412.0623	278.94948	-136.55351	390.3274	368.57547	-124.78917	320.68498	159.1613	-183.32507	295.19614	68.61365	-145.16674	315.83189	71.41986	-70.80001	245.40492	20.32572	-109.62056	421.80848	30.77862	-134.6182	416.82063	16.06508	-84.68043	381.44936	17.68618	-175.74414	404.11907	446.88188	167.67195	408.63871	355.39452	227.34333	483.26143	412.70972	122.82455	455.27558	283.75299	121.2806	402.01659	361.16091	129.34403	308.23071	148.35314	155.98773	293.54279	62.08296	111.79957	321.74243	69.22063	39.12461	250.84529	19.38855	68.25142	423.69716	28.70228	108.04288	414.03474	13.97547	52.67288	384.03181	15.53627	147.38992	374.9079	687.10566	77.54327	376.52554	676.5512	-50.68512	398.81968	363.94471	82.03356	390.03778	362.7451	-78.1531	434.77638	730.82064	10.14159	305.18083	57.59789	75.28466	303.23187	62.11309	-108.7888	
37	0.36	265.35877	1100.21685	-9.92295	280.68199	915.41543	-4.96111	377.92843	1083.07553	1.37879	435.86793	723.71489	-75.93027	433.71448	737.88156	96.30577	296.53434	767.40401	1.34136	395.02416	430.91788	-156.3836	390.89191	380.11159	-217.00291	481.19249	390.53395	-121.19667	412.07185	278.94788	-136.56341	390.36615	368.59762	-124.77199	320.69688	159.14898	-183.31752	295.2068	68.6076	-145.17817	315.8447	71.41916	-70.8088	245.39865	20.32361	-109.60829	421.80554	30.77692	-134.63316	416.82219	16.07551	-84.69169	381.44224	17.67444	-175.75083	404.17064	446.86649	167.70161	408.67798	355.37183	227.37151	483.30232	412.68262	122.85053	455.30135	283.73379	121.29931	402.05191	361.1456	129.37194	308.24245	148.34542	155.99468	293.54171	62.07948	111.80175	321.73999	69.22206	39.12784	250.84678	19.38754	68.25082	423.69784	28.70087	108.04251	414.0353	13.97473	52.6685	384.02539	15.53546	147.38825	374.92389	687.08643	77.59112	376.52708	676.53969	-50.6344	398.85312	363.93293	82.06181	390.10029	362.77549	-78.13475	434.79121	730.79822	10.18775	305.17812	57.59715	75.28668	303.24224	62.1088	-108.79967	
